<svg xmlns="http://www.w3.org/2000/svg" width="40" height="40" fill="none"><g fill="#726DA8" clip-path="url(#a)"><path d="M7.917 40h24.166C36.448 40 40 36.448 40 32.083V7.917C40 3.552 36.448 0 32.083 0H7.917C3.552 0 0 3.552 0 7.917v24.166C0 36.448 3.552 40 7.917 40ZM2.5 7.917A5.423 5.423 0 0 1 7.917 2.5h24.166A5.423 5.423 0 0 1 37.5 7.917v24.166a5.423 5.423 0 0 1-5.417 5.417H7.917A5.423 5.423 0 0 1 2.5 32.083V7.917Z"/><path d="M20 30.217c5.633 0 10.217-4.584 10.217-10.217 0-5.633-4.584-10.217-10.217-10.217-5.633 0-10.217 4.584-10.217 10.217 0 5.633 4.584 10.217 10.217 10.217Zm0-17.934c4.255 0 7.717 3.462 7.717 7.717 0 4.255-3.462 7.717-7.717 7.717-4.255 0-7.717-3.462-7.717-7.717 0-4.255 3.462-7.717 7.717-7.717Zm10.596-.013c1.644 0 2.882-1.233 2.882-2.868 0-1.705-1.303-2.869-2.88-2.869-1.643 0-2.881 1.234-2.881 2.869 0 1.701 1.296 2.868 2.88 2.868Zm.296-3.143c.526.465-.675 1.03-.675.276 0-.45.611-.333.675-.276Z"/></g><defs><clipPath id="a"><path fill="#fff" d="M0 0h40v40H0z"/></clipPath></defs></svg>