<svg xmlns="http://www.w3.org/2000/svg" width="40" height="40" fill="none"><g clip-path="url(#a)"><path fill="#726DA8" d="M20.242 32.5c5.786 0 3.723-3.663 4.17-4.717-.007-.786-.014-1.543.013-2.003.367.103 1.232.542 3.018 2.278 2.759 2.784 3.464 4.442 5.692 4.442h4.102c1.3 0 1.976-.538 2.315-.99.326-.437.646-1.203.296-2.397-.915-2.873-6.251-7.835-6.583-8.358.05-.097.13-.225.172-.292h-.004c1.054-1.391 5.074-7.415 5.665-9.825a.03.03 0 0 0 .004-.013c.32-1.1.026-1.813-.277-2.217-.457-.603-1.183-.908-2.165-.908h-4.102c-1.373 0-2.415.692-2.941 1.953-.882 2.242-3.359 6.852-5.215 8.484-.057-2.312-.019-4.077.011-5.389.06-2.558.254-5.048-2.401-5.048h-6.447c-1.663 0-3.255 1.817-1.532 3.973 1.507 1.89.542 2.944.867 8.187-1.267-1.358-3.52-5.027-5.113-9.715-.447-1.268-1.124-2.443-3.029-2.443H2.657C.993 7.502 0 8.408 0 9.927 0 13.337 7.548 32.5 20.242 32.5ZM6.758 10.002c.362 0 .399 0 .667.761 1.632 4.805 5.292 11.915 7.965 11.915 2.008 0 2.008-2.058 2.008-2.833l-.001-6.17c-.11-2.042-.854-3.058-1.342-3.675l5.847.007c.003.028-.034 6.825.016 8.471 0 2.339 1.857 3.679 4.755.745 3.059-3.451 5.174-8.611 5.259-8.821.125-.3.233-.402.626-.402h4.119l-.004.015c-.375 1.75-4.076 7.327-5.315 9.058a1.43 1.43 0 0 0-.056.084c-.545.89-.989 1.873.075 3.256h.001c.097.117.349.39.715.77 1.14 1.177 5.05 5.2 5.397 6.8-.23.037-.48.01-4.355.019-.825 0-1.47-1.234-3.932-3.717-2.213-2.153-3.65-3.033-4.958-3.033-2.54 0-2.355 2.061-2.332 4.555.009 2.703-.008 1.848.01 2.018-.148.058-.573.175-1.681.175C9.667 30 2.78 13.215 2.515 10.007c.092-.009 1.353-.004 4.243-.005Z"/></g><defs><clipPath id="a"><path fill="#fff" d="M0 0h40v40H0z"/></clipPath></defs></svg>