<svg width="24" height="18" viewBox="0 0 24 18" fill="none" xmlns="http://www.w3.org/2000/svg">
<path d="M21.6776 2.31148e-07C21.3729 -0.00013596 21.0711 0.0599116 20.7895 0.176697C20.508 0.293483 20.2524 0.464707 20.0372 0.680545L9.29188 11.4244L3.96704 6.09913C3.75158 5.88281 3.49558 5.71111 3.21369 5.59385C2.9318 5.47659 2.62954 5.41608 2.32424 5.41577C2.01893 5.41547 1.71656 5.47538 1.43443 5.59208C1.1523 5.70877 0.895959 5.87996 0.680073 6.09585C0.464188 6.31173 0.292997 6.56808 0.176302 6.8502C0.059606 7.13233 -0.000303888 7.4347 1.15907e-06 7.74001C0.000306206 8.04532 0.0608202 8.34757 0.178079 8.62946C0.295339 8.91136 0.467041 9.16736 0.683358 9.38281L7.65004 16.35C7.86559 16.5657 8.12154 16.7368 8.40325 16.8536C8.68497 16.9703 8.98693 17.0304 9.29188 17.0304C9.59684 17.0304 9.8988 16.9703 10.1805 16.8536C10.4622 16.7368 10.7182 16.5657 10.9337 16.35L23.3195 3.96422C23.6443 3.63952 23.8656 3.22576 23.9553 2.77527C24.045 2.32478 23.9991 1.85782 23.8233 1.43345C23.6475 1.00908 23.3499 0.646371 22.9679 0.391212C22.586 0.136054 22.1369 -9.12255e-05 21.6776 2.31148e-07Z" fill="white"/>
</svg>
