<svg xmlns="http://www.w3.org/2000/svg" width="64" height="64" fill="none"><g fill="#726DA8" clip-path="url(#a)"><path d="M42.798 33.919a15.519 15.519 0 0 0-13.12-7.175 15.518 15.518 0 0 0-13.12 7.175l-6.94 10.826a9.797 9.797 0 0 0-1.537 6 9.8 9.8 0 0 0 2.342 5.733 9.8 9.8 0 0 0 5.301 3.206 9.796 9.796 0 0 0 6.168-.586l.13-.058a19.39 19.39 0 0 1 15.44.058 9.81 9.81 0 0 0 6.166.587 9.798 9.798 0 0 0 5.302-3.206 9.795 9.795 0 0 0 2.343-5.734 9.798 9.798 0 0 0-1.536-6l-6.94-10.826Zm-31.311-.014c2.064-.793 3.633-2.457 4.416-4.685.745-2.12.684-4.513-.173-6.74-.857-2.225-2.417-4.041-4.391-5.115-2.074-1.128-4.353-1.311-6.414-.517-4.147 1.594-6.05 6.718-4.241 11.425 1.444 3.746 4.813 6.11 8.218 6.11a7.18 7.18 0 0 0 2.585-.478Zm13.465-8.482c5.183 0 9.4-4.804 9.4-10.71C34.352 8.806 30.136 4 24.953 4c-5.183 0-9.4 4.806-9.4 10.713 0 5.906 4.217 10.71 9.4 10.71Zm16.235 2.632c.798.264 1.611.39 2.422.39 3.78 0 7.464-2.75 8.87-6.98.81-2.433.756-5.007-.15-7.246-.949-2.343-2.706-4.045-4.949-4.79-2.244-.746-4.67-.435-6.833.875-2.066 1.25-3.648 3.28-4.457 5.715-1.707 5.134.58 10.534 5.097 12.036Zm19.797-1.25-.001-.002c-3.575-2.64-8.921-1.496-11.919 2.553-2.994 4.05-2.526 9.497 1.043 12.14 1.302.963 2.84 1.424 4.414 1.424 2.744 0 5.599-1.4 7.507-3.975 2.994-4.05 2.526-9.497-1.044-12.14Z"/></g><defs><clipPath id="a"><path fill="#fff" d="M0 0h64v64H0z"/></clipPath></defs></svg>